<svg width="14" height="15" viewBox="0 0 14 15" fill="none" xmlns="http://www.w3.org/2000/svg">
<path fill-rule="evenodd" clip-rule="evenodd" d="M5.40886 1.78006C5.39268 1.83584 5.38012 1.88987 5.37093 1.94219C5.17911 3.03474 6.46086 3.38288 7.06097 3.40751C8.36929 3.46121 8.77111 2.62195 8.68513 1.94385C8.67804 1.88796 8.66764 1.83317 8.65416 1.78006C8.60265 1.80181 8.55097 1.82221 8.49919 1.84133C7.3409 2.26901 6.13002 2.05423 5.56232 1.84387C5.50417 1.82232 5.45277 1.80082 5.40886 1.78006ZM5.52809 2.00493C5.5004 2.19541 5.52555 2.35219 5.58138 2.48229C5.65483 2.65348 5.78806 2.79377 5.95857 2.90682C6.30419 3.13596 6.77301 3.23281 7.06785 3.24491C7.73373 3.27224 8.11785 3.05481 8.32178 2.78089C8.49057 2.55418 8.55037 2.26981 8.52575 2.00517C7.89588 2.23157 7.25594 2.27692 6.70862 2.23883C6.22913 2.20546 5.81292 2.10748 5.52809 2.00493Z" fill="#393D46"/>
<path d="M7.00148 3.34939C5.58535 3.20989 5.33587 2.22567 5.41454 1.78006L4.11644 2.1288C3.69718 2.24505 3.3297 2.65191 3.17235 2.8844L1.93318 4.91872C1.46113 5.6162 2.01185 5.98431 2.34622 6.08119L3.70334 6.3718V10.7892C3.70334 11.7192 4.37207 12.0291 4.82444 12.126C6.42939 12.405 8.48277 12.2423 9.30885 12.126C10.2057 12.033 10.3119 11.3704 10.3119 11.0217V6.3718L11.6101 6.08119C12.3181 5.94169 12.2985 5.44183 12.2001 5.20934L11.2499 3.52376L11.02 3.1169C10.8022 2.73144 10.3709 2.40004 10.1349 2.30317L8.65363 1.78006C8.71264 3.00065 7.88656 3.43658 7.00148 3.34939Z" fill="#393D46"/>
</svg>
